# xmcd
#
# Track frame offsets: 
#        150
#        9205
#        25780
#        37545
#        52200
#        63042
#        79850
#        92762
#        108282
#        122007
#
# Disc length: 1800 seconds
#
# Revision: 4
# Processed by: cddbd v1.5.2PL0 Copyright (c) Steve Scherf et al.
# Submitted via: ExactAudioCopyFreeDBPlugin 1.0
#
DISCID=6907060a
DTITLE=Dude Mowrey - HonkyTonk
DYEAR=1991
DGENRE=Country
TTITLE0=Honky Tonk Song
TTITLE1=It Could've Been Me
TTITLE2=Cowboys Don't Cry
TTITLE3=Heartbreak Train
TTITLE4=Falling Never Felt So Good
TTITLE5=If I Ever Love Again
TTITLE6=Good Lookin'
TTITLE7=The Rest Of Forever
TTITLE8=We Got Love
TTITLE9=Do You Want To Make Something Of It
EXTD=more info - MillenniumMusicProjectFormat - SYNTAX=SongTitle{Subtit
EXTD=le}[miscInfo](Lyricist;Composer;Date,Artist,Location,State,Countr
EXTD=y) YEAR: 1991
EXTT0=
EXTT1=
EXTT2=
EXTT3=
EXTT4=
EXTT5=
EXTT6=
EXTT7=
EXTT8=
EXTT9=
PLAYORDER=
